HIERARCHY
ROOT Hips
{
	OFFSET -0.001795 -0.223333 0.028219
	CHANNELS 6 Xposition Yposition Zposition Zrotation Yrotation Xrotation 
	JOINT LeftUpLeg
	{
		OFFSET 0.069520 -0.091406 -0.006815
		CHANNELS 3 Zrotation Yrotation Xrotation
		JOINT LeftLeg
		{
			OFFSET 0.034277 -0.375199 -0.004496
			CHANNELS 3 Zrotation Yrotation Xrotation
			JOINT LeftFoot
			{
				OFFSET -0.013596 -0.397961 -0.043693
				CHANNELS 3 Zrotation Yrotation Xrotation
				JOINT LeftToe
				{
					OFFSET 0.026358 -0.055791 0.119288
					CHANNELS 3 Zrotation Yrotation Xrotation
					End Site
					{
						OFFSET 0.000000 0.000000 0.000000
					}
				}
			}
		}
	}
	JOINT RightUpLeg
	{
		OFFSET -0.067670 -0.090522 -0.004320
		CHANNELS 3 Zrotation Yrotation Xrotation
		JOINT RightLeg
		{
			OFFSET -0.038290 -0.382569 -0.008850
			CHANNELS 3 Zrotation Yrotation Xrotation
			JOINT RightFoot
			{
				OFFSET 0.015774 -0.398415 -0.042312
				CHANNELS 3 Zrotation Yrotation Xrotation
				JOINT RightToe
				{
					OFFSET -0.025372 -0.048144 0.123348
					CHANNELS 3 Zrotation Yrotation Xrotation
					End Site
					{
						OFFSET 0.000000 0.000000 0.000000
					}
				}
			}
		}
	}
	JOINT Spine
	{
		OFFSET -0.002533 0.108963 -0.026696
		CHANNELS 3 Zrotation Yrotation Xrotation
		JOINT Spine1
		{
			OFFSET 0.005487 0.135180 0.001092
			CHANNELS 3 Zrotation Yrotation Xrotation
			JOINT Spine2
			{
				OFFSET 0.001457 0.052922 0.025425
				CHANNELS 3 Zrotation Yrotation Xrotation
				JOINT Neck
				{
					OFFSET -0.002778 0.213870 -0.042857
					CHANNELS 3 Zrotation Yrotation Xrotation
					JOINT Head
					{
						OFFSET 0.005152 0.064970 0.051349
						CHANNELS 3 Zrotation Yrotation Xrotation
						End Site
						{
							OFFSET 0.000000 0.000000 0.000000
						}
					}
				}
				JOINT LeftShoulder
				{
					OFFSET 0.078845 0.121749 -0.034090
					CHANNELS 3 Zrotation Yrotation Xrotation
					JOINT LeftArm
					{
						OFFSET 0.090977 0.030469 -0.008868
						CHANNELS 3 Zrotation Yrotation Xrotation
						JOINT LeftForeArm
						{
							OFFSET 0.259612 -0.012772 -0.027456
							CHANNELS 3 Zrotation Yrotation Xrotation
							JOINT LeftHand
							{
								OFFSET 0.249234 0.008986 -0.001171
								CHANNELS 3 Zrotation Yrotation Xrotation
								End Site
								{
									OFFSET 0.000000 0.000000 0.000000
								}
							}
						}
					}
				}
				JOINT RightShoulder
				{
					OFFSET -0.081759 0.118833 -0.038615
					CHANNELS 3 Zrotation Yrotation Xrotation
					JOINT RightArm
					{
						OFFSET -0.096012 0.032551 -0.009143
						CHANNELS 3 Zrotation Yrotation Xrotation
						JOINT RightForeArm
						{
							OFFSET -0.253742 -0.013329 -0.021401
							CHANNELS 3 Zrotation Yrotation Xrotation
							JOINT RightHand
							{
								OFFSET -0.255298 0.007772 -0.005559
								CHANNELS 3 Zrotation Yrotation Xrotation
								End Site
								{
									OFFSET 0.000000 0.000000 0.000000
								}
							}
						}
					}
				}
			}
		}
	}
}
MOTION
Frames: 16
Frame Time: 0.050000
0.000000 0.721885 0.000000 -5.190789 -11.742427 6.023112 4.228198 1.093354 -64.961030 -2.451972 2.982756 80.836865 6.969127 12.800828 -8.481758 0.000000 0.000000 0.000000 -6.947409 6.193780 -56.206978 30.797007 -18.658331 69.934404 -14.992408 -39.648480 -7.040506 0.000000 0.000000 0.000000 -9.066208 7.600122 64.482609 -2.001810 0.810315 -28.952990 -2.715485 5.832768 22.270806 7.430831 -4.685700 -10.331723 0.000000 0.000000 0.000000 3.403673 -26.681148 8.535953 4.778095 -20.577573 -1.820395 124.917959 -33.163291 -57.558078 0.000000 0.000000 0.000000 11.739815 12.177832 5.830692 4.641802 33.934218 -2.011356 -121.439125 18.603841 -24.786039 0.000000 0.000000 0.000000 
-0.000393 0.720334 0.005573 -6.361080 -10.018340 7.623332 2.397731 -0.745497 -66.077576 1.005346 -1.440166 82.798756 6.132747 9.591750 -13.296259 0.000000 0.000000 0.000000 -8.277227 5.309687 -57.877483 35.120253 -22.413804 67.699920 -17.893889 -43.570196 -2.524424 0.000000 0.000000 0.000000 -8.024250 6.439552 65.847064 0.312269 0.493284 -30.684792 -2.102516 8.794037 23.751937 10.319290 -4.663080 -18.652674 0.000000 0.000000 0.000000 5.983158 -26.438865 8.037471 7.266381 -21.724014 -2.354613 123.500835 -30.347444 -53.738721 0.000000 0.000000 0.000000 8.698735 6.925389 3.581272 7.566738 38.875692 -1.432759 -122.017209 21.772896 -27.378028 0.000000 0.000000 0.000000 
0.000142 0.720935 0.010775 -5.511068 -8.786621 7.628266 0.926247 -2.241183 -67.466499 1.672812 -2.828778 83.988152 5.022596 7.889420 -9.300499 0.000000 0.000000 0.000000 -8.747132 4.617177 -57.328774 32.607461 -20.990010 68.129158 -17.140563 -41.972726 -2.758028 0.000000 0.000000 0.000000 -7.381327 5.791242 68.299829 0.930833 0.496974 -33.094286 -3.865437 8.431978 25.857932 12.130698 -5.511744 -20.846318 0.000000 0.000000 0.000000 7.117238 -25.790666 7.636032 9.085985 -24.176734 -2.969565 120.980351 -30.890225 -52.562226 0.000000 0.000000 0.000000 8.853744 8.167168 4.214801 6.789310 39.253374 -1.707153 -126.982707 18.289828 -24.272083 0.000000 0.000000 0.000000 
0.001582 0.723400 0.016155 -6.181431 -10.302806 9.040232 0.368174 -1.896514 -68.114416 4.180648 -5.156578 83.629970 4.031567 5.436153 -9.120226 0.000000 0.000000 0.000000 -8.756748 5.444857 -59.865566 33.541524 -21.201665 67.593437 -20.088511 -44.952913 2.778805 0.000000 0.000000 0.000000 -7.535867 6.934141 70.376631 0.971367 0.482346 -33.504345 -4.524442 8.199858 25.071232 12.430399 -5.681576 -20.756615 0.000000 0.000000 0.000000 8.803388 -23.931025 6.967671 10.237805 -25.199466 -3.330491 118.108565 -30.199693 -48.961777 0.000000 0.000000 0.000000 9.568548 6.631773 3.542835 5.832000 41.698722 -1.979270 -128.362354 17.379441 -23.501720 0.000000 0.000000 0.000000 
0.003808 0.724434 0.021514 -6.596003 -11.910163 9.966336 -0.806362 -1.913316 -68.359565 5.580471 -6.171355 83.298202 5.318476 8.898321 -8.352667 0.000000 0.000000 0.000000 -8.674662 6.042673 -59.854995 33.865849 -20.285861 66.032502 -20.162937 -47.031010 -0.061203 0.000000 0.000000 0.000000 -8.420289 8.540173 71.091505 1.036684 0.444461 -33.607805 -3.790865 8.250239 24.897600 11.449539 -5.184218 -19.903521 0.000000 0.000000 0.000000 7.681568 -23.440724 7.042406 11.272531 -25.307674 -3.508411 118.482699 -31.414421 -50.795170 0.000000 0.000000 0.000000 9.531273 7.243347 3.833895 6.635536 40.381529 -1.789278 -130.463400 17.568523 -24.799133 0.000000 0.000000 0.000000 
0.006991 0.725076 0.026824 -7.406140 -12.288085 10.915952 -1.505459 -2.150011 -68.812269 7.049164 -7.709286 83.117980 5.480022 9.355699 -8.153319 0.000000 0.000000 0.000000 -9.316667 5.940631 -60.237014 35.579799 -21.335584 65.378085 -20.062381 -48.278270 -2.310619 0.000000 0.000000 0.000000 -8.451560 8.969186 71.994886 1.876376 0.308138 -33.169561 -4.008559 8.196599 24.087332 12.670165 -5.609355 -21.317763 0.000000 0.000000 0.000000 7.223889 -23.933525 7.287591 10.702244 -24.191422 -3.238047 118.108818 -32.955431 -52.472748 0.000000 0.000000 0.000000 10.268680 7.126026 3.846698 6.211328 39.106575 -1.863115 -132.531638 18.833336 -28.754717 0.000000 0.000000 0.000000 
0.010442 0.726709 0.032420 -7.616930 -12.578140 11.702032 -1.842114 -2.198976 -68.474624 8.019355 -8.516099 82.452613 4.951390 7.491329 -10.010797 0.000000 0.000000 0.000000 -10.175619 5.737937 -60.931528 36.455874 -21.763106 64.678347 -19.616489 -48.464670 -3.844723 0.000000 0.000000 0.000000 -8.166664 9.145690 73.086384 2.482918 0.241679 -33.644302 -4.379916 7.250809 24.616207 13.406133 -5.877922 -22.744170 0.000000 0.000000 0.000000 7.723429 -23.294944 7.050253 9.086651 -23.452597 -2.896727 119.047864 -33.227193 -53.157046 0.000000 0.000000 0.000000 9.790262 6.537193 3.401850 8.916046 37.102926 -1.294116 -135.951958 20.350703 -34.589427 0.000000 0.000000 0.000000 
0.013824 0.727314 0.038033 -8.495502 -12.993024 12.748650 -1.108888 -1.451133 -68.786651 7.853359 -8.252791 82.788501 4.895850 6.731585 -11.787718 0.000000 0.000000 0.000000 -11.008538 5.640708 -61.889180 38.409730 -22.880820 63.666624 -19.799089 -48.846749 -3.790037 0.000000 0.000000 0.000000 -8.808316 10.088856 73.738168 3.924465 0.021928 -33.188256 -3.734860 7.679207 24.497093 14.943820 -6.771886 -22.538278 0.000000 0.000000 0.000000 7.644859 -23.154451 7.093148 8.246631 -22.893424 -2.797895 119.465777 -33.689289 -54.237665 0.000000 0.000000 0.000000 10.276943 4.423783 2.504984 12.120562 35.432402 -0.716080 -136.812822 22.431209 -38.871335 0.000000 0.000000 0.000000 
0.016967 0.725732 0.043403 -8.949388 -12.959436 13.517473 -0.198789 -0.801190 -68.846168 6.953020 -7.314089 83.306752 4.930520 5.685835 -14.717693 0.000000 0.000000 0.000000 -12.078632 5.185309 -62.378107 39.800185 -23.702103 62.757137 -18.749541 -47.972152 -5.667840 0.000000 0.000000 0.000000 -8.908201 10.466662 74.965780 4.496237 -0.102820 -32.515258 -3.547060 6.482465 23.816231 14.232101 -6.248217 -23.165865 0.000000 0.000000 0.000000 8.969719 -22.476801 6.762058 5.861415 -22.632794 -2.510340 119.418003 -34.696832 -54.861132 0.000000 0.000000 0.000000 10.499294 3.672900 1.990543 17.404331 32.906204 0.106417 -139.130959 26.632830 -49.805900 0.000000 0.000000 0.000000 
0.020168 0.723484 0.048364 -9.750498 -13.879518 14.073609 0.640259 0.224018 -68.922432 6.425579 -6.439580 83.589796 5.380466 6.598961 -15.721854 0.000000 0.000000 0.000000 -12.737287 5.262044 -62.831949 41.314673 -24.222358 61.825240 -18.870937 -48.078217 -5.233360 0.000000 0.000000 0.000000 -9.754700 11.904781 75.726223 5.408034 -0.283861 -31.907137 -2.996303 6.215640 23.685255 15.569068 -6.833522 -24.008101 0.000000 0.000000 0.000000 11.524230 -21.782522 6.296758 3.849312 -23.920384 -2.545228 118.349319 -34.972012 -53.921052 0.000000 0.000000 0.000000 11.006293 2.152341 1.235179 21.739709 32.408427 0.794176 -139.037828 30.868608 -57.355378 0.000000 0.000000 0.000000 
0.023701 0.719776 0.053012 -10.151267 -14.352299 14.498365 0.926123 0.716155 -69.643062 6.091143 -6.156217 84.922688 5.283688 6.109518 -16.098151 0.000000 0.000000 0.000000 -13.862367 5.011513 -63.852413 42.985177 -24.915776 60.485660 -18.993798 -47.749229 -4.328371 0.000000 0.000000 0.000000 -10.167819 12.803107 76.699409 6.216954 -0.452419 -31.431687 -3.128536 4.853261 23.976274 14.165729 -5.921444 -25.062457 0.000000 0.000000 0.000000 14.485828 -21.623909 5.778688 1.774369 -23.139022 -2.177204 115.712451 -35.338740 -51.484119 0.000000 0.000000 0.000000 10.193121 1.943073 0.930114 27.376397 30.424767 1.451791 -141.687914 36.875503 -72.070500 0.000000 0.000000 0.000000 
0.027579 0.714872 0.057117 -10.795081 -15.093578 14.651134 0.891173 1.074032 -69.983482 5.712508 -5.701095 86.504020 6.196877 8.597360 -16.757885 0.000000 0.000000 0.000000 -14.292351 5.157085 -64.528680 44.301193 -25.202686 59.282215 -18.495836 -47.083560 -4.774770 0.000000 0.000000 0.000000 -10.360128 13.833690 78.407943 7.031083 -0.591643 -31.601030 -3.161218 3.921748 24.215676 16.036802 -7.094700 -25.127759 0.000000 0.000000 0.000000 16.603770 -20.595393 5.207109 0.605040 -24.647043 -2.186297 114.229125 -36.167419 -50.764038 0.000000 0.000000 0.000000 10.830836 0.674465 0.190915 30.240567 29.321109 1.699901 -145.383133 41.082079 -85.181116 0.000000 0.000000 0.000000 
0.031727 0.708271 0.060412 -11.370554 -16.575331 15.564760 0.323858 1.561179 -71.142099 6.636303 -6.674221 88.110704 6.211076 8.164713 -17.906953 0.000000 0.000000 0.000000 -15.072574 5.633428 -66.461589 45.025912 -25.222070 58.606742 -17.563299 -46.282626 -6.292083 0.000000 0.000000 0.000000 -10.225838 14.874887 79.163209 7.694885 -0.699591 -31.984655 -4.179944 2.407077 24.559333 15.120810 -6.851269 -24.736599 0.000000 0.000000 0.000000 19.699971 -20.481157 4.561528 -1.001742 -24.010116 -1.873804 111.227065 -38.143325 -49.883501 0.000000 0.000000 0.000000 10.988717 0.603525 -0.078369 32.256557 27.159050 1.489646 -152.265861 45.360676 -104.288433 0.000000 0.000000 0.000000 
0.035522 0.704035 0.062974 -12.104354 -17.899485 16.637127 -0.428503 1.843124 -72.199944 6.854312 -6.865393 89.509520 7.303784 11.382122 -18.583439 0.000000 0.000000 0.000000 -14.948323 6.541393 -68.216940 45.043013 -24.970729 58.478315 -17.152240 -46.362304 -7.381093 0.000000 0.000000 0.000000 -9.912672 15.783728 80.176499 7.440890 -0.640865 -32.526686 -4.656871 0.335664 25.084287 15.120733 -7.310788 -23.794242 0.000000 0.000000 0.000000 22.691814 -19.548372 3.685565 -2.699052 -23.201233 -1.559448 110.304308 -38.353372 -47.984912 0.000000 0.000000 0.000000 12.084904 -0.783162 -1.164482 32.581254 25.826248 1.210386 -155.571749 48.743867 -116.258700 0.000000 0.000000 0.000000 
0.038130 0.700719 0.064879 -12.346631 -18.802408 17.395225 -0.988636 2.034597 -73.262885 7.086227 -7.172331 90.153664 7.612886 12.449029 -18.178405 0.000000 0.000000 0.000000 -14.989055 7.165855 -69.753335 44.736618 -24.779928 58.664613 -15.824233 -44.768283 -9.495595 0.000000 0.000000 0.000000 -10.036999 16.683264 80.687498 8.000358 -0.762307 -32.299738 -5.578378 -1.206328 25.230720 13.732426 -6.918064 -22.780533 0.000000 0.000000 0.000000 24.152763 -20.016387 3.307419 -3.626293 -21.236046 -1.315993 108.987943 -40.503419 -48.729745 0.000000 0.000000 0.000000 12.859213 -0.086108 -1.148871 32.164443 22.600284 0.482313 -158.953995 49.901069 -125.281265 0.000000 0.000000 0.000000 
0.039441 0.700087 0.067008 -13.037551 -19.549671 18.417926 -0.607334 2.862832 -74.138630 7.173558 -7.231111 90.285303 7.483643 12.054487 -18.033920 0.000000 0.000000 0.000000 -14.438697 8.117141 -71.332676 44.076980 -24.512455 59.194652 -15.176696 -43.775337 -10.221353 0.000000 0.000000 0.000000 -10.108518 17.262765 80.465543 8.034188 -0.774011 -32.152699 -5.621441 -2.233529 25.699327 14.779528 -7.920373 -21.505712 0.000000 0.000000 0.000000 26.035442 -19.077807 2.717347 -6.346981 -21.928111 -1.101567 107.905514 -42.298992 -48.980040 0.000000 0.000000 0.000000 14.258519 -0.903885 -1.948071 32.157029 20.735549 0.091606 -162.597757 51.510939 -134.719122 0.000000 0.000000 0.000000 
